<?xml version="1.0" encoding="utf-8"?>
<!-- Generator: Adobe Illustrator 22.1.0, SVG Export Plug-In . SVG Version: 6.00 Build 0)  -->
<svg version="1.1"
	 id="svg2" inkscape:version="0.92.2 5c3e80d, 2017-08-06" sodipodi:docname="404.svg" xmlns:cc="http://creativecommons.org/ns#" xmlns:dc="http://purl.org/dc/elements/1.1/" xmlns:inkscape="http://www.inkscape.org/namespaces/inkscape" xmlns:rdf="http://www.w3.org/1999/02/22-rdf-syntax-ns#" xmlns:sodipodi="http://sodipodi.sourceforge.net/DTD/sodipodi-0.dtd" xmlns:svg="http://www.w3.org/2000/svg"
	 xmlns="http://www.w3.org/2000/svg" xmlns:xlink="http://www.w3.org/1999/xlink" x="0px" y="0px" viewBox="0 0 297.6 163.2"
	 style="enable-background:new 0 0 297.6 163.2;" xml:space="preserve">
<style type="text/css">
	.st0{fill:#D0D6EC;}
	.st1{fill:#E7B2B6;}
	.st2{fill:#221E50;}
	.st3{fill:#2B295E;}
	.st4{fill:#333383;}
	.st5{fill:#555CA5;}
	.st6{fill:none;stroke:#A3A3A3;stroke-width:0.25;stroke-miterlimit:10;}
	.st7{fill:none;stroke:#A3A3A3;stroke-width:0.25;stroke-miterlimit:10;stroke-dasharray:2.5827,2.5827;}
	.st8{fill:none;stroke:#A3A3A3;stroke-width:0.25;stroke-miterlimit:10;stroke-dasharray:2.9279,2.9279;}
	.st9{fill:none;stroke:#A3A3A3;stroke-width:0.25;stroke-miterlimit:10;stroke-dasharray:3.321,3.321;}
	.st10{fill:none;stroke:#A3A3A3;stroke-width:0.25;stroke-miterlimit:10;stroke-dasharray:3.4554,3.4554;}
	.st11{fill:none;stroke:#A3A3A3;stroke-width:0.25;stroke-miterlimit:10;stroke-dasharray:2.8056,2.8056;}
	.st12{fill:none;stroke:#A3A3A3;stroke-width:0.25;stroke-miterlimit:10;stroke-dasharray:4.7252,4.7252;}
	.st13{fill:none;stroke:#A3A3A3;stroke-width:0.25;stroke-miterlimit:10;stroke-dasharray:3.7257,3.7257;}
	.st14{fill:none;stroke:#A3A3A3;stroke-width:0.25;stroke-miterlimit:10;stroke-dasharray:2.6019,2.6019;}
	.st15{fill:none;stroke:#A3A3A3;stroke-width:0.25;stroke-miterlimit:10;stroke-dasharray:4.3768,4.3768;}
	.st16{fill:none;stroke:#A3A3A3;stroke-width:0.25;stroke-miterlimit:10;stroke-dasharray:5;}
	.st17{fill:#D98789;}
	.st18{fill:#DFE5F4;}
	.st19{opacity:0.4;fill:#555CA5;}
	.st20{opacity:0.2;fill:#555CA5;}
	.st21{fill:#D35C2B;}
	
		.st22{fill:none;stroke:#A3A3A3;stroke-width:0.25;stroke-linecap:round;stroke-linejoin:round;stroke-miterlimit:10;stroke-dasharray:2;}
	
		.st23{fill:none;stroke:#D1D1D1;stroke-width:0.5;stroke-linecap:round;stroke-linejoin:round;stroke-miterlimit:10;stroke-dasharray:2;}
	.st24{fill:#333381;}
	.st25{fill:#F0D170;}
	.st26{opacity:0.2;fill:#DC8D39;}
	
		.st27{fill:none;stroke:#C4C4C4;stroke-width:0.5;stroke-linecap:round;stroke-linejoin:round;stroke-miterlimit:10;stroke-dasharray:2;}
	.st28{fill:#E5E5E5;}
</style>
<sodipodi:namedview  bordercolor="#666666" borderlayer="true" borderopacity="1" fit-margin-bottom="0" fit-margin-left="0" fit-margin-right="14.41" fit-margin-top="0" gridtolerance="10" guidetolerance="10" id="namedview39" inkscape:current-layer="text4184" inkscape:cx="203.87545" inkscape:cy="100.93138" inkscape:pageopacity="0" inkscape:pageshadow="2" inkscape:window-height="732" inkscape:window-maximized="1" inkscape:window-width="1366" inkscape:window-x="0" inkscape:window-y="0" inkscape:zoom="1.4142136" objecttolerance="10" pagecolor="#ffffff" showgrid="false">
	</sodipodi:namedview>
<g id="scientist_3">
	<path class="st0" d="M238.3,37.9l-7,5.2c0,0,9,55.3,10.3,69.9l36.2-1.1C277.9,111.9,263.5,36.2,238.3,37.9z"/>
	<path class="st0" d="M236.4,37.2L236,49c0,0-1.2,21.9-2.6,23.9c-0.7,1-3.5,3.2-6.3,5.3c-3.1,2.3-6.1,4.4-6.1,4.4h-5.7l7.7-9.7
		l2.8-3.5c0,0,1.3-21.1,1.5-23.6C227.7,41.2,236.4,37.2,236.4,37.2z"/>
	<path class="st1" d="M227.1,78.2c-3.1,2.3-6.1,4.4-6.1,4.4h-5.7l7.7-9.7C223.8,73.8,226.3,76.5,227.1,78.2z"/>
	<g>
		<path class="st2" d="M255,153.5l-1.3,4.2h-13.1C240.7,157.7,244,152,255,153.5z"/>
		<path class="st2" d="M278.2,153.6l-1.2,4.2h-11.6C265.5,157.8,268.5,152.1,278.2,153.6z"/>
		<path class="st3" d="M248.4,74.8h25.1c0,0-8.4,41.9-18.2,79l-11.8,0.3L248.4,74.8z"/>
		<path class="st4" d="M277.3,74.4c0,0,5.3,31.5,1.5,79.8h-10.1l-6.3-63.6l0,0c-0.2-1.9-3-3.5-3-3.5V76.2L277.3,74.4z"/>
		<g>
			<g>
				<path class="st3" d="M276.5,145.5c-0.9-6.1-1.7-13.2-2.1-20.7c-0.1-1.1-0.1-2.3-0.2-3.5c-0.1-1.3-0.1-2.6-0.1-3.9
					c0-0.4,0.1-1,0.2-1.5c0.1-0.5,0.2-0.9,0.2-1.3c-0.1-4.9,0-9.5,0.1-13.4c0-1,0-2.1,0.1-3.1c0.2-9.1,0.2-14.2,0.2-14.3l0,0
					c0,0.1,0.2,5.2,0.1,14.2c0,1,0,2-0.1,3.1c-0.1,4-0.2,8.5-0.1,13.4c0,0.4-0.1,0.9-0.2,1.4c-0.1,0.5-0.2,1-0.2,1.4
					c0,1.3,0.1,2.6,0.1,3.9c0.1,1.2,0.1,2.4,0.2,3.5C275.1,132.3,275.7,139.5,276.5,145.5L276.5,145.5z"/>
			</g>
		</g>
	</g>
	<path class="st5" d="M236.4,37.2c4.4-3.9,11.4-6.2,18.1-7c7.6-0.9,26.3,38.1,19,43c-8.3,5.6-25.1,1.6-25.1,1.6s-8.5-10.7-10.8-15.6
		C235.9,55.6,236.4,37.2,236.4,37.2z"/>
	<g>
		<g>
			<g>
				<polyline class="st6" points="224.4,35.6 226.6,34.3 224.2,30.2 222,31.4 				"/>
				<polyline class="st6" points="216.4,34.5 214.2,35.7 216.6,40 218.7,38.8 				"/>
			</g>
		</g>
		<g>
			<g>
				<polyline class="st6" points="225.1,38.7 227.3,37.4 225,33.3 222.8,34.5 				"/>
				<polyline class="st6" points="218.3,37 216.1,38.2 215,35.9 				"/>
				<polyline class="st6" points="214.1,34.2 212.9,32 210.7,33.1 				"/>
				<line class="st7" x1="208.4" y1="34.3" x2="204.9" y2="36"/>
				<polyline class="st6" points="203.8,36.6 201.5,37.7 202.5,40 				"/>
				<path class="st6" d="M205.3,46.2l1,2.3c0.8,0.1,1.6,0,2.5-0.2"/>
				<path class="st8" d="M211.5,47.5c1.4-0.5,2.8-1.2,4-1.9"/>
				<path class="st6" d="M216.8,44.9c1.3-0.7,2.1-1.3,2.1-1.3l-0.6-1.1l2.2-1.2"/>
			</g>
		</g>
		<g>
			<g>
				<path class="st6" d="M209.5,51.4c-0.7-0.3-1.5-0.6-2.3-0.9l0-0.1l-0.8-1.9l-0.1-0.3"/>
				<line class="st9" x1="204.8" y1="45.1" x2="202.8" y2="40.6"/>
				<polyline class="st6" points="202.1,39.1 201.5,37.7 201.1,36.8 198.8,37.8 				"/>
				<line class="st10" x1="195.7" y1="39.2" x2="190.9" y2="41.2"/>
				<polyline class="st6" points="189.3,41.9 187,42.9 187.1,43 188,45.2 				"/>
				<path class="st6" d="M188.9,47.3l0.9,2c0,0.1,0.1,0.2,0.1,0.3c-0.3,0.3-0.8,0.7-1.3,1.1c-0.2,0.2-0.4,0.3-0.6,0.5"/>
				<path class="st6" d="M185.3,53.7c-1,1-1.8,1.7-1.8,1.7l0,0l2.3,2.6l1.8-1.7"/>
				<path class="st6" d="M190.1,53.9l1.8-1.7c0,0,0,0,0.1,0.1c0,0,0,0,0,0c-0.3,0.7-0.6,1.5-1,2.3"/>
				<path class="st6" d="M190,56.9c-0.6,1.3-1,2.3-1,2.3l3.3,1.2l0.9-2.3"/>
				<path class="st6" d="M194,56.2l0.9-2.3c0.2,0.1,0.3,0.1,0.5,0.1c0,0.8,0.1,1.7,0.1,2.5"/>
				<path class="st6" d="M195.5,57.6c0.1,1.4,0.1,2.5,0.1,2.5h3.5l-0.2-2.5"/>
				<path class="st6" d="M198.9,56.7l-0.2-2.5c0.7-0.1,1.5-0.3,2.2-0.6l2.2-1c0.6,0.4,1.3,0.8,2.1,1.4"/>
				<path class="st11" d="M207.2,56c0.9,1,1.7,2.2,2.3,3.5"/>
				<path class="st6" d="M209.9,60.9c0.1,0.5,0.3,0.9,0.4,1.4c0.1,0.3,0.1,0.7,0.2,1H208"/>
				<path class="st12" d="M203.3,63.3h-23.8c-0.7,0-1.3,0.6-1.3,1.3c0,0.7,0.6,1.3,1.3,1.3h26.3"/>
				<path class="st6" d="M208.1,66h2.5c0,0.5-0.1,1.1-0.1,1.7c0,0.3-0.1,0.5-0.1,0.8"/>
				<path class="st13" d="M209.4,72.1c-0.5,1.6-1.3,3.3-2.2,5.1"/>
				<path class="st6" d="M206.3,78.8c-0.4,0.7-0.8,1.4-1.3,2.1h2.5"/>
				<line class="st14" x1="210.1" y1="81" x2="214" y2="81"/>
				<path class="st6" d="M215.3,81h2.5c0,0,0.2-0.9,0.5-2.5"/>
				<path class="st15" d="M218.8,74.2c0-0.1,0-0.2,0-0.3c0.5-6.8-0.3-16.7-7.4-21.4"/>
			</g>
		</g>
	</g>
	<rect x="199.4" y="81" class="st16" width="22.6" height="1.1"/>
	<path class="st17" d="M234.5,32c0,0,1.2,3.4,2.2,6c0.5,1.4,2,2.1,3.4,1.7l1.3-0.4c1.4-0.5,2.6-1.5,3.2-2.9l1.2-2.8
		c0,0-3.6-2.5-5.8-7.8L234.5,32z"/>
	<path class="st1" d="M234.1,32.9c0,0,8.3-3.7,5.9-8.8c-2.4-5.1-2.9-9.1-8.3-6.9c-5.4,2.2-5.5,4.6-5.1,6.5
		C226.9,25.6,231.8,33.7,234.1,32.9z"/>
	<path class="st5" d="M239.9,24.1c0,0-4-6.4-11.1-2.6c-7.1,3.9-7.4-4.5-1.7-8.7c0,0,0.6,2.7,4.7,1.1
		C240.4,10.7,240.1,22.6,239.9,24.1z"/>
	<path class="st18" d="M291,114.5l-21.2,4.4c0,0-6.9-23.1-13.1-43.1c-2-6.4-3.8-12.5-5.4-17.4c-1.7-5.4-2.9-9.4-3.5-10.9
		c-2.7-7.4-3.4-15.1-3.4-15.1s10.4-3.6,12.2-3c3.1,0.9,11.1,13.8,16.7,29.3C278.1,71.7,291,114.5,291,114.5z"/>
	<polygon class="st19" points="236.4,37.2 237.2,64.8 233.4,46.8 234.5,44.9 232.5,42.5 	"/>
	<path class="st19" d="M244.5,32.4c0,0,2.9,25.7,8.5,30.7c0,0-2.8-20.1-2.2-21.7l-2.2-1l1.2-2.6L244.5,32.4z"/>
	<path class="st0" d="M256.7,75.9c-2-6.4-3.8-12.5-5.4-17.4c2.1-3.2,11.5-13.8,11.5-13.8S261,62.3,256.7,75.9z"/>
	<path class="st1" d="M232.9,54.2l-2.9,3.6l-7.8-7.5l-1.5-1.5c-1.4-0.9-2.1-3.2-1.9-5.5c0.3-2.3,0-1.7,0.1-3.3
		c0.1-1.6,2.1-0.5,2.1-0.5c4.4,3,2.6,7.5,2.6,7.5l1.1,0.8L232.9,54.2z"/>
	<path class="st18" d="M254,32.8c0,0-6.8,24.3-8.9,27.3l-13.7-8.2l-4.1,4.8c0,0,12.7,14.8,19.7,14.3c3.8-0.3,16.3-25.2,16.3-25.2
		S262.1,32,254,32.8z"/>
	<path class="st18" d="M224.6,47.9c-0.8,0.9-1.8,1.8-2.5,2.5l-1.5-1.5c-1.4-0.9-2.1-3.2-1.9-5.5c0.3-2.3,0-1.7,0.1-3.3
		c0.1-1.6,2.1-0.5,2.1-0.5c4.4,3,2.6,7.5,2.6,7.5L224.6,47.9z"/>
</g>
<g>
	<polygon class="st0" points="234.5,87.1 231.5,101.9 226.5,127.2 220.4,157.8 82.6,157.8 76.2,128.2 70.6,102.4 67.3,87.1 	"/>
	<path class="st20" d="M234.5,87.1l-2.9,14.8l-5,25.3c-15.9-8.2-44.7-12.1-70.4-14.2c-27.4-2.2-62.4,5.9-79.9,15.2l-5.6-25.9
		l-3.3-15.2H234.5z"/>
	<path class="st5" d="M240.9,87.1h-182c-1.4,0-2.5-1.1-2.5-2.5l0,0c0-1.4,1.1-2.5,2.5-2.5h182c1.4,0,2.5,1.1,2.5,2.5l0,0
		C243.4,86,242.3,87.1,240.9,87.1z"/>
</g>
<g id="scientist_2">
	<path class="st21" d="M144.7,41.3c-2.7-2.7-2.4-23.8-2.4-25c-0.1-3.7-1.5-5.3-1.5-5.3c-0.7-2-12.5-3-15.4,4.5
		c-1.9,4.8-6.7,14.2-6.7,14.2c-19.7,27.4-11.9,40.9-11.9,40.9l0.8-0.1c-0.3-0.9-0.5-2.2-0.2-2.7l0.8,2.7l14.6-1.9
		c0.1-2.8,1.2-7.2,1.2-7.2l0.1,7.4l2,0.1c-0.8-15.6,2.5-23.3,3.5-25.2c-0.8,8.7,3.4,22.9,3.4,22.9l0.6-0.1l-1.4-7.1l1.7,7l1.7-0.4
		c-0.3-0.9-0.5-1.9-0.7-2.8c0.5,1.7,0.7,2.8,0.7,2.8c3.6-4,10.3-3.6,10.3-3.6C149.5,57.4,144.7,41.3,144.7,41.3z"/>
	<polygon class="st1" points="146.2,146.9 150.5,155.4 154,154.1 153.2,145.4 	"/>
	<path class="st21" d="M149,154l1.2,3.8h11.5C161.7,157.8,158.7,152.6,149,154z"/>
	<path class="st4" d="M145.9,73l9.1,74.5h-9.6c0,0-12.6-32.2-14.4-65.8C130.2,68.9,145.9,73,145.9,73z"/>
	<polygon class="st1" points="122.6,147.6 124.6,154.5 128.3,154.1 129.1,143.5 	"/>
	<path class="st21" d="M124.3,154l1.2,3.8h11.5C136.9,157.8,134,152.6,124.3,154z"/>
	<path class="st5" d="M133.4,74h-7.1l-7.7-1.1c0,0-4.9,10.7-2.4,42.4c1.3,16.1,6.1,33.3,6.1,33.3l9.9-0.2l4.3-59.2
		c0.1-1.6,2-2.2,2-2.2l-0.3-13.2L133.4,74z"/>
	<g>
		<path class="st4" d="M125.9,147.2c-1.3-7.2-2.5-15.6-3.3-24.5c-0.1-1.4-0.2-2.7-0.3-4.1c-0.1-1.5-0.2-3.1-0.3-4.6
			c0-0.5,0.1-1.1,0.2-1.7c0.1-0.5,0.2-1.1,0.2-1.6c-0.3-5.8-0.3-11.2-0.3-15.9c0-1.2,0-2.4,0-3.6c-0.1-10.7-0.2-16.8-0.2-16.8l0,0
			c0,0.1,0.4,6.1,0.5,16.8c0,1.2,0,2.4,0,3.6c0,4.7,0,10,0.3,15.8c0,0.5-0.1,1.1-0.2,1.7c-0.1,0.6-0.3,1.1-0.2,1.6
			c0.1,1.5,0.2,3.1,0.3,4.6c0.1,1.4,0.2,2.8,0.3,4.1c0.8,8.8,1.7,17.4,3,24.5L125.9,147.2z"/>
	</g>
	<path class="st17" d="M136.3,25.2c0,0-1.1,6.6,3,9.7c0,0-3.8,5.4-5.7,5.3c-2.2-0.2-5.3-6.8-5.3-6.8s0.9-4.1,0.7-10.3L136.3,25.2z"
		/>
	<path class="st1" d="M137.7,27.1c0,0-9,0.4-9.2-5.2c-0.2-5.6-1.4-9.4,4.3-9.9c5.8-0.5,6.9,1.6,7.5,3.5
		C140.8,17.3,140.1,26.8,137.7,27.1z"/>
	<path class="st5" d="M145.9,73c0,0-1.2,1-13.1,1.6c-0.8,0-1.5,0.1-2.2,0.1c-4.3,0.1-7.2-0.2-9.1-0.6c-2.6-0.5-3.3-1.1-3.3-1.1
		s3.7-9,3.7-13.3c0-3,6.7-26.9,6.7-26.9c0.8,2.2,2.9,4,5.2,4c6.1,0,3.7-4,3.7-4l6.8,2.7c0,0-0.8,2.5-0.5,5c0.1,0.6,0.2,1.3,0.5,1.8
		c0.1,0.1,0.1,0.3,0.2,0.4c1.6,2.8,0.5,7.7-0.7,13.4C142.5,61.7,145.9,73,145.9,73z"/>
	<path class="st1" d="M176.7,46.9c-0.5,1.2-0.5,0.7-1.1,2.3c-0.6,1.7-2,3-3.3,3.1c0,0-0.6,0.4-1.5,1.1l0,0c-0.3,0.2-0.6,0.4-0.9,0.7
		c-4.1,3.1-12.4,8.9-15,8.6c-3.5-0.4-13.4-14.6-13.4-14.6l2.7-12.6c0,0,7.2,12.1,10.7,21.2c0,0,8.7-3.6,13.7-5.7
		c0.3-0.1,0.5-0.2,0.8-0.3L171,50c0,0,0.4-3.8,4.5-4.2C175.5,45.7,177.2,45.7,176.7,46.9z"/>
	<path class="st5" d="M176.7,46.9c-0.5,1.2-0.5,0.7-1.1,2.3c-0.6,1.7-2,3-3.3,3.1c0,0-0.6,0.4-1.5,1.1l0,0c-0.3,0.2-0.6,0.4-0.9,0.7
		c-0.1-1.3-1.4-3.1-1.4-3.1v0c0.3-0.1,0.5-0.2,0.8-0.3L171,50c0,0,0.4-3.8,4.5-4.2C175.5,45.7,177.2,45.7,176.7,46.9z"/>
	<g>
		<path class="st22" d="M175.9,43.7v14.1c0,0.7-0.5,1.2-1.2,1.2s-1.2-0.5-1.2-1.2V43.7H175.9z"/>
		<path class="st22" d="M175.9,53.6v4.1c0,0.7-0.5,1.2-1.2,1.2s-1.2-0.5-1.2-1.2v-4.1H175.9z"/>
	</g>
	<path class="st18" d="M161,60.5c0,0-4.7,2.4-5.7,2.4c-0.9,0-3.5-1.2-6.2-4.4c-1.2-1.4-2.9-3.6-4.4-5.6c-2-2.6-3.8-5-3.7-5.1
		c0-0.1,1-13.2,1-13.2s2.2,0.6,2.4,0.8c0.2,0.2,8.9,15.9,10.5,20.6l5.2-1.6L161,60.5z"/>
	<path class="st18" d="M136,53.6l1.1,50.4H150c0,0-2.8-28.6-4.2-37.5c-1.5-10.2-1.4-31.1-1.4-31.1s-5.3-2.2-5.7-2.1
		C138.4,33.4,136,53.6,136,53.6z"/>
	<path class="st0" d="M137.4,32.7c0,0-2.1,16.7-1.4,20.8l3.4-11.3l-0.8-1.3l1.4-0.4l-0.9-7.1C139.2,33.4,138.6,32.7,137.4,32.7z"/>
	<path class="st18" d="M134.8,54.1v49.8c0,0-8.2-0.1-14.5-0.4c-4-0.1-7.2-0.3-7.2-0.4c0-0.4,2.2-20.7,6.3-35.5
		c0.9-3.3,1.2-6.7,0.9-10.1c-0.3-3.3-0.7-7.2-1.2-9c0,0,0,0,0,0c0,0-7.7,6.2-7.5,6.5c0.2,0.3,2.1,5.5,2.1,5.5s-3.6,2.6-4.4,3
		c0,0-6.7-9.1-5.8-10.5c0,0,11.7-20,14.4-19.1c0.8,0.2,8.7-0.5,8.7-0.5L134.8,54.1z"/>
	<path class="st0" d="M128.2,33.3c0.3,0.3,6.6,20.8,6.6,20.8s-5.8-9.9-6.2-10.1l0.6-1.2l-1.4-0.7l-1.3-8.8
		C126.6,33.3,127.6,32.7,128.2,33.3z"/>
	<path class="st1" d="M125,70.8c-1.2,0.5-0.8,0.2-2.4,1c-1.6,0.8-3.5,0.8-4.5,0l-1.1-0.9c-0.2-0.2-0.5-0.5-1-0.9
		c-2.2-2-6.6-6.5-6.6-6.5l4.4-3c0.1,0.6,3.6,6.9,4.3,8c0.1,0.1,0.1,0.2,0.1,0.2l0.6,0.5c0,0,2.9-2.5,6.2,0
		C124.9,69.2,126.2,70.3,125,70.8z"/>
	<path class="st0" d="M113.6,60.2l-5,3.1c0,0,0.7,0.7,0.7,0.7c0,0,4.5-3.3,4.5-3.3L113.6,60.2z"/>
	<path class="st21" d="M140.2,13.3c0,0-11.1,8.5-10.1,14.8c0.9,5.9-0.8,6.4-2.1,7c-3.3,1.5-8.8-1.4-10.5-1.3c-1.2,0.1,3-1.2,5-3.9
		c5.4-7.2,4.8-16.9,5.9-17.6C135.7,7.6,140.2,13.3,140.2,13.3z"/>
	<path class="st0" d="M161.2,53.6c0,0,0.9,6,1.4,7l-1.6,0.8c0,0-1-6.2-0.7-7.3L161.2,53.6z"/>
	<path class="st0" d="M124,75c-0.9,3.3-2.8,20.9-3.7,28.6c-4-0.1-7.2-0.3-7.2-0.4c0-0.4,2.2-20.7,6.3-35.5c0.9-3.3,1.2-6.7,0.9-10.1
		c-0.3-3.3-0.7-7.2-1.2-9c0.6-0.5,1.2-0.8,1.6-0.5C121.5,48.8,125.1,70.8,124,75z"/>
	<path class="st5" d="M125,70.8c-1.2,0.5-0.8,0.2-2.4,1c-1.6,0.8-3.5,0.8-4.5,0l-1.1-0.9c-0.2-0.2-0.5-0.5-1-0.9
		c0.7-0.4,1.5-0.9,2-1.5c0.1,0.1,0.1,0.2,0.1,0.2l0.6,0.5c0,0,2.9-2.5,6.2,0C124.9,69.2,126.2,70.3,125,70.8z"/>
	<path class="st0" d="M161,60.5c0,0-4.7,2.4-5.7,2.4c-0.9,0-3.5-1.2-6.2-4.4c-1.2-1.4-2.9-3.6-4.4-5.6c-0.2-1.1-0.3-2.3,0.4-2.3
		c1.3-0.1,8.4,10.6,10.1,10.5C157.1,61,161,60.5,161,60.5z"/>
</g>
<g id="scientist_1">
	<path class="st5" d="M43.3,9.2c0,0-0.6-2.4-3.3-1.5c-2.7,1-0.3,3.1-0.3,3.1L43.3,9.2z"/>
	<polygon class="st1" points="45.4,146.9 49.7,155.4 53.2,154.1 52.4,145.4 	"/>
	<g id="test_tube_1_">
		<g>
			<path class="st23" d="M74.7,77.4c0,0.2,0,0.4,0,0.5c-0.3,2.3-2.3,4.2-4.7,4.2c-2.4,0-4.3-1.7-4.6-4c0-0.2-0.1-0.5-0.1-0.7
				c0-2,1.2-3.7,3-4.4v-6h3.4v6C73.4,73.7,74.7,75.4,74.7,77.4z"/>
		</g>
	</g>
	<path class="st24" d="M48.2,154l1.2,3.8h11.5C60.9,157.8,57.9,152.6,48.2,154z"/>
	<path class="st25" d="M54.1,147.5h-9.6c0,0-12.6-32.2-14.4-65.8c-0.7-12.8,14.3-8.8,14.3-8.8L48,97.3L54.1,147.5z"/>
	<path class="st26" d="M46,147.5h-1.4c0,0-12.6-32.2-14.4-65.8c-0.7-12.8,14.3-8.8,14.3-8.8L48,97.3C46.8,112.8,45.2,136.5,46,147.5
		z"/>
	<polygon class="st1" points="21.8,147.6 23.8,154.5 27.5,154.1 28.3,143.5 	"/>
	<path class="st24" d="M23.5,154l1.2,3.8h11.5C36.1,157.8,33.2,152.6,23.5,154z"/>
	<path class="st25" d="M37.1,87c0,0-1.9,0.6-2,2.2l-4.3,59.2l-6.1,0.1l-3.8,0.1c0,0-4.8-17.2-6.1-33.3c-0.2-2.3-0.3-4.6-0.4-6.7
		c-1.4-26.6,2.8-35.8,2.8-35.8L25,74h7.1l4.8-0.2L37.1,87z"/>
	<path class="st26" d="M24.7,148.6l-3.8,0.1c0,0-4.8-17.2-6.1-33.3c-0.2-2.3-0.3-4.6-0.4-6.7l10.6-1.2l1.6,6.7
		C26.6,114.2,23.9,140.2,24.7,148.6z"/>
	<path class="st17" d="M79.5,64.8c-1.3,0.4-0.9,0.1-2.8,0.6c-1.8,0.6-3.7,0.2-4.8-0.7c-0.4,0-0.9,0.1-1.4,0.1
		c-4.7,0.3-12.3,0.5-16.1-0.8C51,62.8,38.5,52.8,38.5,52.8l-3.2-14.7c0,0,6.6-0.8,7.7,0.9C49.2,48.4,50.4,51,58,57.4
		c4.9,1.5,8.6,2.8,12.9,4c0.7,0.2,1.4,0.4,2.1,0.6c0.5-0.3,3.7-1.9,6.7,1C79.6,63,80.8,64.4,79.5,64.8z"/>
	<path class="st0" d="M62.6,65.6c0,0-8.2-1.1-8.7-1.4c-0.4-0.2-5.5-3.9-8.8-6.2c0,0,0,0,0,0c-1.5-1.1-2.7-1.9-2.7-1.9s-4-11,0-18.7
		c0,0,10.5,15.7,15.3,19l5.5,2.6c0,0-0.7,3.4-0.8,5.5C62.4,65,62.5,65.4,62.6,65.6z"/>
	<path class="st21" d="M44.5,10.1c0,0-1.1-1.7-3.8-0.9c-2.7,0.8-1.3,3.4-1.3,3.4L44.5,10.1z"/>
	<path class="st25" d="M36.5,83h8.3c0.8,0,1.3-0.7,1.2-1.5c-0.8-3.9-2.8-14.4-1.7-19.3c1.4-6-1.4-22.4-1.4-22.4s-1.1,2.6-7.5,0.6
		C28.9,38.6,36.5,83,36.5,83z"/>
	<path class="st17" d="M44.3,26.6c0,0-3.8,6.3-0.9,11.1c0,0-3.2,3.9-6.8,2.5c-7.3-2.9-3.9-10.3-3.9-10.3s0.9,0.2,4.9-8.7L44.3,26.6z
		"/>
	<path class="st1" d="M45,29.1c0,0-9.4-3.2-7.3-9c2.1-5.8,2.3-10.2,8.4-8.3c6.1,1.8,6.4,4.5,6.2,6.6C52.1,20.3,47.5,29.7,45,29.1z"
		/>
	<path class="st5" d="M42.3,9.8c0,0,8.7-2.2,10.5,7.1c0.8,4-2.8,0.2-6.5,0.3c-3.6,0.1-8.7,4-8.7,4S33.1,14.2,42.3,9.8z"/>
	<path class="st18" d="M41,59.6c-0.1,4.5-0.2,9.4-0.3,14.3c-0.6,20.7-1.6,42.6-1.6,42.6H12.4c-1.3-14.6,4.7-60,8.7-72.5
		c4-12.5,10.8-12.7,10.8-12.7l6.2,7.1C38.7,40.3,41.1,48.8,41,59.6z"/>
	<path class="st0" d="M43.9,39c0,0-0.9,1.2-0.9,2c0.9,26.1,3.3,75.5,3.3,75.5h5.6L43.9,39z"/>
	<path class="st17" d="M71,80.3c-1.6,0-1-0.2-3.2-0.1c-2.2,0.1-4.2-0.9-5-2.2c-0.9-0.3-2-0.7-3.3-1.2c-6.4-2.5-16.3-6.9-18-8.6
		c-2.4-2.4-14.2-23.7-13.1-26c1.1-2.3,8.4-3.7,8.4-3.7L46.1,61l15,11.7h0l3.5,2.7c0,0,4.4-1.5,7,3C71.6,78.4,72.6,80.3,71,80.3z"/>
	<path class="st18" d="M41.4,40.1c0,0-7.8-9.2-7.6-11.3c0,0-3,0.2-4.1,2c0,0,9.8,12.3,11.7,13.2V40.1z"/>
	<path class="st18" d="M42.3,34.8c0,0,2.1,1.2,2.4,3c0,0-0.4,4.9-2.2,6.3l-1.1-4C41.4,40.1,42.1,37.4,42.3,34.8z"/>
	<path class="st0" d="M41,59.6c-0.1,4.5-0.2,9.4-0.3,14.3c0,0,0,0,0,0c-2.8-0.8-7.5-10-9.7-16.4c-2.2-6.4-3.5-14.7-2.6-15.3L41,59.6
		z"/>
	<path class="st18" d="M32.9,35.2c0,0,5,0.2,6.9,7.9c2,7.7,5.8,16.7,6.5,17.4c0.7,0.7,9.3,7.5,9.3,7.5s-1.9,5.2-1.9,6.5
		c0,0-11.7-4.4-13-6.3c-1.3-1.8-13.8-23-13.3-25.4C28,40.5,28.2,37.8,32.9,35.2z"/>
	<path class="st0" d="M22.8,54.5c-1.4,17.8,0.8,50.4,1.6,62.1h-12c-1.3-14.6,4.7-60,8.7-72.5c4-12.5,10.8-12.7,10.8-12.7
		S24.6,32.6,22.8,54.5z"/>
	<path class="st5" d="M71,80.3c-1.6,0-1-0.2-3.2-0.1c-2.2,0.1-4.2-0.9-5-2.2c-0.9-0.3-2-0.7-3.3-1.2c0.9-1.1,1.6-4.1,1.6-4.1h0
		l3.5,2.7c0,0,4.4-1.5,7,3C71.6,78.4,72.6,80.3,71,80.3z"/>
	<path class="st5" d="M79.5,64.8c-1.3,0.4-0.9,0.1-2.8,0.6c-1.8,0.6-3.7,0.2-4.8-0.7c-0.4,0-0.9,0.1-1.4,0.1
		c0.3-1.2,0.3-2.5,0.4-3.4c0.7,0.2,1.4,0.4,2.1,0.6c0.5-0.3,3.7-1.9,6.7,1C79.6,63,80.8,64.4,79.5,64.8z"/>
	<g id="test_tube_2_">
		<g>
			<path class="st27" d="M79.4,66.7c0,0.1,0,0.2,0,0.4c-0.2,1.6-1.5,2.8-3.1,2.8c-1.6,0-2.9-1.2-3.1-2.7c0-0.2,0-0.3,0-0.5
				c0-1.3,0.8-2.5,2-2.9v-4h2.3v4C78.6,64.2,79.4,65.4,79.4,66.7z"/>
		</g>
	</g>
</g>
<g id="test_tube">
	<g>
		<g>
			<path class="st18" d="M86.4,65.9V80c0,0.7-0.5,1.2-1.2,1.2c-0.7,0-1.2-0.5-1.2-1.2V65.9H86.4z"/>
			<path class="st5" d="M86.4,75.9V80c0,0.7-0.5,1.2-1.2,1.2c-0.7,0-1.2-0.5-1.2-1.2v-4.1H86.4z"/>
		</g>
		<g>
			<path class="st18" d="M89.9,65.9V80c0,0.7-0.5,1.2-1.2,1.2c-0.7,0-1.2-0.5-1.2-1.2V65.9H89.9z"/>
			<path class="st5" d="M89.9,75.9V80c0,0.7-0.5,1.2-1.2,1.2c-0.7,0-1.2-0.5-1.2-1.2v-4.1H89.9z"/>
		</g>
		<g>
			<path class="st18" d="M93.4,65.9V80c0,0.7-0.5,1.2-1.2,1.2c-0.7,0-1.2-0.5-1.2-1.2V65.9H93.4z"/>
			<path class="st5" d="M93.4,75.9V80c0,0.7-0.5,1.2-1.2,1.2c-0.7,0-1.2-0.5-1.2-1.2v-4.1H93.4z"/>
		</g>
		<g>
			<path class="st18" d="M97.2,65.9V80c0,0.7-0.5,1.2-1.2,1.2c-0.7,0-1.2-0.5-1.2-1.2V65.9H97.2z"/>
			<path class="st5" d="M97.2,75.9V80c0,0.7-0.5,1.2-1.2,1.2c-0.7,0-1.2-0.5-1.2-1.2v-4.1H97.2z"/>
		</g>
		<rect x="81.5" y="80" class="st18" width="18.2" height="2.1"/>
		<rect x="84.3" y="65.9" class="st0" width="0.3" height="9.5"/>
		<rect x="87.9" y="65.9" class="st0" width="0.3" height="9.5"/>
		<rect x="91.4" y="65.9" class="st0" width="0.3" height="9.5"/>
		<rect x="95.2" y="65.9" class="st0" width="0.3" height="9.5"/>
	</g>
	<g>
		<g>
			<path class="st18" d="M164.1,78.5c0,0.1,0,0.3,0,0.4c-0.2,1.8-1.7,3.2-3.5,3.2c-1.8,0-3.3-1.3-3.5-3c0-0.2,0-0.4,0-0.5
				c0-1.5,0.9-2.8,2.3-3.3v-4.5h2.6v4.5C163.2,75.7,164.1,77,164.1,78.5z"/>
			<path class="st0" d="M160.8,70.7h-1.1v4.5c0,0-1.9,2.2-1.5,4.2h1.8c0,0-0.1-3.3,0.8-4.2V70.7z"/>
		</g>
		<path class="st25" d="M164.1,78.9c-0.2,1.8-1.7,3.2-3.5,3.2c-1.8,0-3.3-1.3-3.5-3c0.9,0,2.5,0,4,0.2
			C162.2,79.3,163.4,79.1,164.1,78.9z"/>
	</g>
	<g>
		<g>
			<path class="st18" d="M173.5,78.5c0,0.1,0,0.3,0,0.4c-0.2,1.8-1.7,3.2-3.5,3.2c-1.8,0-3.3-1.3-3.5-3c0-0.2,0-0.4,0-0.5
				c0-1.5,0.9-2.8,2.3-3.3v-4.5h2.6v4.5C172.6,75.7,173.5,77,173.5,78.5z"/>
			<path class="st0" d="M170.2,70.7H169v4.5c0,0-1.9,2.2-1.5,4.2h1.8c0,0-0.1-3.3,0.8-4.2V70.7z"/>
		</g>
		<path class="st21" d="M173.5,78.9c-0.2,1.8-1.7,3.2-3.5,3.2c-1.8,0-3.3-1.3-3.5-3c0.9,0,2.5,0,4,0.2
			C171.6,79.3,172.8,79.1,173.5,78.9z"/>
	</g>
</g>
<g id="text4184">
	<path id="path866_1_" class="st28" d="M192.5,90.4h3.4c0,0.1,0,0.1,0,0.1l-5.1,14.9h3.6v-6.5h3.1v6.5h1.5v2.8h-1.7v4.2h-3.1v-4.2
		H187v-2"/>
	<path id="path868" class="st28" d="M211.5,110.3L211.5,110.3c0.1,1.3-0.6,2-1.9,2h-6.8c-1.3,0-2-0.7-2-2V92.5c0-1.4,0.7-2,2-2h6.7
		c1.3,0,2,0.7,2,2 M204,109.5h4.4V93.3H204"/>
	<path id="path870_1_" class="st28" d="M217.2,105.4h3.6v-6.5h3.1v6.5h1.7l-0.3,2.8h-1.6v4.2h-3.1v-4.2h-7.1v-2l5.4-15.7h3.4
		c0,0.1,0,0.1,0,0.1"/>
</g>
</svg>
