<svg width="538" height="189" viewBox="0 0 538 189" fill="none" xmlns="http://www.w3.org/2000/svg">
<path d="M2.60001 158.3L14.9 145.9L14.6 170.1L2.60001 158.3Z" fill="#004D40"/>
<path d="M35.7 133.7L48 121.3L58.1 131.2L45.9 143.7L35.7 133.7Z" fill="#E65100"/>
<path d="M5 102.9L17.3 90.5L27.4 100.5L15.2 112.9L5 102.9Z" fill="#E65100"/>
<path d="M35 81L47.3 68.6L57.4 78.6L45.2 91L35 81Z" fill="#004D40"/>
<path d="M4.4 50.4L8 29.4L26.8 47.9L14.5 60.4L4.4 50.4Z" fill="#004D40"/>
<path d="M11.9 71C22.5 60.2 41.4 41.9 59.7 23.2C63.9 27.3 63.1 44.5 53 54.9C42.5 65.6 23.4 84.3 5 102.9C0.800002 98.9 1.8 81.4 11.9 71Z" fill="#FF9800"/>
<path d="M9.6 126.4C20.2 115.6 39 97.2 57.4 78.6C61.6 82.7 60.8 99.9 50.7 110.3C40.1 121 21 139.6 2.6 158.3C-1.5 154.2 -0.499997 136.8 9.6 126.4Z" fill="#009688"/>
<path d="M33 156.5C43.6 145.7 39.8 149.9 58.2 131.3C62.3 135.4 61.6 152.6 51.5 163C40.9 173.7 44.4 169.8 26 188.5C21.9 184.4 22.8 166.9 33 156.5Z" fill="#FF9800"/>
<path d="M112.4 95.7C117.5 99.2 121.7 103.6 125.1 109.2C128.5 114.8 130.1 121.5 130.1 129.4C130.1 137.6 128.3 144.6 124.8 150.6C121.3 156.6 116.7 161.5 111 165.3C99.4 173.3 84.9 176.9 70.9 176.8C64.2 176.8 46.9 169.5 61.8 167C88.4 167 99.5 150 99.5 125C99.5 114.7 96.1 106.2 89.1 99.6C80.3 91.2 69 86.8 68.7 84.2C67.9 77.2 77.7 74.9 82.5 69.2C89.2 61.4 90.6 52.7 90.6 42.7C90.6 33.1 88 25.5 82.7 20.1C53 -3 6.8 24.6 4.4 50.4C-3.9 34.1 10.3 8.3 42.5 2C73.5 -4.1 106.4 7.5 115.8 22.4C118.9 27.4 120.5 33.3 120.5 40.4C120.5 51.8 116.6 61.8 107.8 69.2C99.8 76.2 89.3 80.6 79 82.8V83.9C84 84.4 89.6 85.7 95.8 87.6C102.1 89.6 107.6 92.3 112.4 95.7Z" fill="#009688"/>
<path d="M182.2 118.3V144.5H198.3C204.2 144.5 208.5 143.5 211.2 141.4C213.9 139.3 215.3 136.1 215.3 131.6C215.3 127 213.8 123.6 210.7 121.5C207.7 119.3 202.9 118.2 196.4 118.2H182.2V118.3ZM170.1 155.6V71.1H194.9C203.3 71.1 209.8 73 214.4 76.8C219 80.6 221.3 86.1 221.3 93.1C221.3 97.4 220.3 101.1 218.2 104C216.1 106.9 213 109.1 208.8 110.7C215 112.1 219.7 114.8 223.1 118.6C226.5 122.4 228.1 127.1 228.1 132.5C228.1 139.5 225.5 145.1 220.4 149.3C215.3 153.5 208.3 155.5 199.5 155.5H170.1V155.6ZM182.2 107.3H190.4C196.6 107.3 201.1 106.2 204.1 104C207.1 101.8 208.6 98.4 208.6 93.9C208.6 89.8 207.4 86.7 205.1 84.8C202.7 82.9 199 82 193.8 82H182.3L182.2 107.3Z" fill="black"/>
<path d="M239.5 83.3C239.5 81.5 240.1 80 241.3 78.8C242.5 77.6 244 77 245.8 77C247.6 77 249.1 77.6 250.3 78.8C251.5 80 252.1 81.5 252.1 83.3C252.1 85.1 251.5 86.6 250.3 87.8C249.1 89 247.6 89.6 245.8 89.6C244 89.6 242.5 89 241.3 87.8C240.1 86.6 239.5 85.1 239.5 83.3ZM240.2 155.6V99.8H251.3V155.6H240.2Z" fill="black"/>
<path d="M274 127.6C274 132.8 275.8 137.2 279.2 140.9C282.7 144.6 286.9 146.4 291.9 146.4C296.8 146.4 301 144.6 304.6 140.9C308.1 137.2 309.9 132.8 309.9 127.6C309.9 122.5 308.1 118.1 304.6 114.4C301.1 110.7 296.9 108.9 291.9 108.9C286.9 108.9 282.7 110.7 279.2 114.4C275.8 118.1 274 122.5 274 127.6ZM262.3 127.6C262.3 119.5 265.2 112.6 270.9 107C276.7 101.4 283.7 98.6 292 98.6C295.9 98.6 299.7 99.3 303.2 100.8C306.8 102.2 309.9 104.4 312.8 107.1C315.7 110 317.8 113.2 319.3 116.7C320.8 120.2 321.5 123.8 321.5 127.7C321.5 131.5 320.7 135.2 319.2 138.9C317.6 142.5 315.5 145.7 312.7 148.4C309.9 151.1 306.7 153.2 303.2 154.7C299.7 156.1 295.9 156.8 291.9 156.8C283.6 156.8 276.6 154 270.8 148.3C265 142.6 262.3 135.7 262.3 127.6Z" fill="black"/>
<path d="M334.1 155.6V71.1H344.7L375.1 106.6L405.6 71.1H416.1V155.6H404.3V89.6L375.1 123.7L345.9 89.6V155.6H334.1Z" fill="black"/>
<path d="M434.5 155.6V71.1H446.7V155.6H434.5Z" fill="black"/>
<path d="M537.1 135.5V149.1C532.2 151.7 527.1 153.6 522 155C516.9 156.3 511.8 157 506.7 157C501.9 157 497.2 156.3 492.8 155.1C488.4 153.8 484.3 152 480.4 149.5C474.1 145.4 469.2 140.1 465.7 133.7C462.2 127.3 460.5 120.4 460.5 112.9C460.5 107.2 461.7 101.7 464 96.4C466.3 91.1 469.6 86.4 473.8 82.4C478.3 78.1 483.4 74.9 489 72.8C494.6 70.7 500.8 69.6 507.6 69.6C512.4 69.6 517.1 70.1 521.7 71.2C526.4 72.3 531.3 74 536.4 76.4V89.6C531 86.7 526 84.5 521.3 83.1C516.6 81.7 512 81 507.6 81C497.7 81 489.6 84.1 483.1 90.2C476.7 96.3 473.4 104 473.4 113.3C473.4 122.5 476.6 130.1 482.9 136.2C489.2 142.3 497.2 145.4 506.8 145.4C511.7 145.4 516.7 144.6 521.7 142.9C526.8 141.4 531.9 138.9 537.1 135.5Z" fill="black"/>
<path d="M188.4 32.5V47.8C188.4 52.6 185.2 55.5 179.3 55.5C173.4 55.5 170.2 52.6 170.2 47.8V32.5C170.2 32 170.6 31.8 171.6 31.8H171.9C172.8 31.8 173.2 32.1 173.2 32.5V47.9C173.2 50.8 175.8 52.9 179.4 52.9C183 52.9 185.6 50.8 185.6 47.9V32.5C185.6 32 186 31.8 186.9 31.8H187.2C188 31.8 188.4 32.1 188.4 32.5Z" fill="black"/>
<path d="M233 33.7C233 34.3 232.3 35.6 231.9 35.6C231.5 35.6 229.9 34.1 226.7 34.1C220.8 34.1 218.8 37.6 218.8 43.4C218.8 48.5 220.3 52.9 226.3 52.9C228 52.9 229.7 52.7 230.6 52.4V45.7H226.7C226.2 45.7 226 45.4 226 44.7V44.2C226 43.5 226.2 43.2 226.7 43.2H232.5C233.2 43.2 233.5 43.5 233.5 44.2V53C233.5 54.9 229.9 55.4 226.1 55.4C219.4 55.4 215.8 51.7 215.8 43.7C215.8 35.4 219.6 31.6 226.6 31.6C229.9 31.7 233 32.8 233 33.7Z" fill="black"/>
<path d="M284.3 32.5V54.6C284.3 55.1 283.9 55.3 283 55.3H282.8C281.9 55.3 281.5 55 281.5 54.6V36.6L281.4 36.7L274.7 48.3L274 48.7H272.7L272 48.3L265.3 36.5L265.2 36.4V54.6C265.2 55.1 264.8 55.3 263.8 55.3H263.6C262.7 55.3 262.3 55 262.3 54.6V32.5C262.3 32 262.7 31.8 263.6 31.8H264.8C265.6 31.8 266 32.1 266.2 32.4L272.5 43.3L273.4 45.4L274.3 43.5L280.6 32.4C280.8 32 281.2 31.8 282 31.8H283.1C283.9 31.8 284.3 32.1 284.3 32.5Z" fill="black"/>
</svg>
